<svg xmlns="http://www.w3.org/2000/svg" viewBox="0 0 1000 1000.27"><defs><style>.cls-1{fill:#9ea1a2;}.cls-2{fill:#6f7271;}.cls-3{fill:#62bf24;}.cls-4{fill:#fff;}</style></defs><g id="Layer_2" data-name="Layer 2"><g id="Layer_1-2" data-name="Layer 1"><path class="cls-1" d="M365.49,269.18c-11.83,5.62-24.75,12.21-37.22,19.41,27,17.7,48.6,44.8,66.22,77.12,47-36.34,90.76-36.87,90.76-36.87,3.91-5,7.71-9.76,11.49-14.42-14.75-10-29.53-19.49-44.28-28.33C431.77,278.66,382.4,271.49,365.49,269.18Z"/><path class="cls-1" d="M192,444.82a505.33,505.33,0,0,1,57.44-122c3.29-6.51,8.82-16.72,15.39-28.57-83.1-8.88-158.45,79.73-187.7,119.36C53.19,530.27,79,647.17,141.51,740.5c14.52-23.36,37.28-59.12,37.28-59.12C145.67,669.7,112.38,640,112.38,640a546.62,546.62,0,0,0,54.68-40A540.27,540.27,0,0,1,192,444.82Z"/><path class="cls-1" d="M302.26,305.27a152.94,152.94,0,0,0-17.53,14.54c-47.44,66.76-82,152.81-88.58,255,75.94-69.29,139.1-152.09,177.37-190.5C355.05,348.67,331.84,320.19,302.26,305.27Z"/><path class="cls-1" d="M427.56,147.88c29.83-12.15,62.24-24.56,93.5-35A538.18,538.18,0,0,1,622.82,86.32c-.72-.23-1.41-.47-2.15-.68a430,430,0,0,0-215.45-6.71c-2.92,9.42-6.87,27.74-.25,44.42C409,133.4,416.67,141.54,427.56,147.88Z"/><path class="cls-1" d="M347.74,182.11c14.05-6.32,31.11-13.84,50.07-21.85a72.84,72.84,0,0,1-18.59-27c-6.45-16.42-6.19-33.15-4.1-46.37a434.25,434.25,0,0,0-166.33,94.48c2.11,0,4.44.09,6.64.13C256.3,179.08,314.48,180.76,347.74,182.11Z"/><path class="cls-1" d="M279.16,268.69c5.79-10.29,11.64-20.58,17-29.94-22.89-15-37.18-25.88-76.63-29.44-16.23-.45-29.79.06-39.33.72a429.35,429.35,0,0,0-84.24,138.3C139.82,302.79,205.84,254.36,279.16,268.69Z"/><path class="cls-1" d="M692.77,606c-1.06,51.37,38.52,84.55,40.68,178.73,0,0-11.34-8.17-15.85-10a721.91,721.91,0,0,1,11.49,91A430.79,430.79,0,0,0,847.44,756.41C831,674.87,779.63,587.15,710.92,506.23,699.56,533.11,693.69,563,692.77,606Z"/><path class="cls-1" d="M974.63,343l.06-.07-2.37-6.83C902.5,135.07,712.69,0,500,0A498.42,498.42,0,0,0,336,27.8C75.63,118.2-62.71,403.66,27.67,664.13c69.88,201,259.68,336.14,472.33,336.14a498.55,498.55,0,0,0,164-27.82C922.15,882.84,1060.29,601.57,974.63,343ZM951.05,631.46C899.35,809.08,748.52,935.87,573.41,964l-.55,1.21c-.56-.27-1.11-.6-1.65-.85A463.59,463.59,0,0,1,432,965a470.47,470.47,0,0,1-63.37-13.84c-120.47-35.08-220.1-115-280.5-225S13.84,489.28,48.92,368.81C114.18,144.66,337.32,1.26,568,35.21l0,0a476.49,476.49,0,0,1,63.31,13.83c120.49,35.08,220.1,115,280.5,225S986.15,511,951.05,631.46Z"/><path class="cls-1" d="M567.52,207.49c-3.59-.34-7.71-.62-12.34-.93C531.41,205,493.62,202,448.06,186.29a223.05,223.05,0,0,0-22.7,30.24c11.68,12.14,33.95,35.46,45,47.87,14.73,8.86,29.47,18.34,44.16,28.31,28-33.46,52-59.14,74.81-83-6.06-.68-12.12-1.36-18.4-1.88Z"/><path class="cls-1" d="M738.12,246.06c4.27,41.29-4.59,81.15-4.59,81.15s25.73,14.89,32,43.26a15.91,15.91,0,0,1,5.93,5.43c7.22,8.67,16.68,29,1.8,69.33,0,0-8.72-18.66-27.25,1.45-8,11.21-15,21.71-21.14,32.13,67.88,78.13,120.68,163.64,143.55,246.45a432,432,0,0,0,61.82-260.9C918.27,409.21,877.19,304.15,738.12,246.06Z"/><path class="cls-1" d="M732.27,216c58.16,22,119.1,57.12,164.09,113A431.28,431.28,0,0,0,682.05,108.64l0,.51c-1.19,0-91.94-2.1-204.27,52.35q-3,1.74-5.83,3.68c35.19,10.31,64.25,12.42,85.13,13.85,4.91.32,9.29.64,13.07,1l3.13.28c10.23.86,23.6,2.33,39.12,4.7,14.29-26,37.35-42.39,51.52-45.54,12.82,4.82,19.39,12.32,24.07,23C711.93,172.52,725.23,192.91,732.27,216Z"/><path class="cls-2" d="M427.55,147.89c29.83-12.15,62.26-24.59,93.5-35A536.92,536.92,0,0,1,622.82,86.33c-.73-.23-1.41-.49-2.14-.7a435,435,0,0,0-58.27-12.71,428.45,428.45,0,0,0-157.19,6c-2.91,9.43-6.86,27.77-.26,44.41,4,10.07,11.72,18.19,22.59,24.55"/><path class="cls-2" d="M192,444.81a507.06,507.06,0,0,1,57.45-121.94c3.29-6.52,8.82-16.74,15.38-28.59C181.72,285.4,106.39,374,77.16,413.66c-24,116.6,1.88,233.52,64.34,326.85,14.54-23.36,37.3-59.14,37.3-59.14C145.68,669.69,112.4,640,112.4,640a551,551,0,0,0,54.66-40A540.33,540.33,0,0,1,192,444.81"/><path class="cls-2" d="M208.8,181.37c2.09,0,4.42.1,6.62.14,40.87-2.43,99.05-.76,132.32.58,14-6.3,31.11-13.81,50.07-21.84a72.74,72.74,0,0,1-18.6-27c-6.45-16.42-6.19-33.12-4.08-46.35A434,434,0,0,0,208.8,181.37"/><path class="cls-2" d="M729.08,865.79A431.41,431.41,0,0,0,847.43,756.42C831,674.88,779.62,587.17,710.91,506.24,699.57,533.12,693.68,563,692.78,606c-1.07,51.39,38.52,84.55,40.67,178.72,0,0-11.35-8.14-15.86-10a726.35,726.35,0,0,1,11.49,91"/><path class="cls-2" d="M365.48,269.17c-11.81,5.63-24.75,12.21-37.22,19.42,27,17.71,48.62,44.8,66.23,77.13,47-36.36,90.75-36.88,90.75-36.88,3.91-5,7.71-9.76,11.49-14.43-14.73-10-29.51-19.49-44.27-28.33-20.68-7.41-70-14.61-87-16.91"/><path class="cls-2" d="M589.34,209.66c-6.06-.66-12.12-1.33-18.4-1.88l-3.44-.28c-3.58-.36-7.69-.62-12.32-.94-23.78-1.62-61.56-4.54-107.12-20.26a219.65,219.65,0,0,0-22.68,30.23c11.66,12.15,33.93,35.45,45,47.86,14.73,8.88,29.47,18.36,44.16,28.31,28-33.44,52-59.13,74.81-83"/><path class="cls-2" d="M96,348.32c43.88-45.53,109.88-94,183.2-79.62,5.81-10.3,11.66-20.59,17-30-22.91-15-37.19-25.9-76.65-29.43-16.21-.46-29.77.05-39.31.71A429.08,429.08,0,0,0,96,348.32"/><path class="cls-2" d="M914.49,620.82a430.3,430.3,0,0,0,15.72-156.46c-11.94-55.15-53-160.21-192.09-218.3,4.27,41.29-4.59,81.15-4.59,81.15s25.73,14.89,32,43.26a15.91,15.91,0,0,1,5.93,5.43c7.22,8.67,16.68,29,1.8,69.33,0,0-8.72-18.66-27.25,1.45-8,11.21-15,21.71-21.14,32.13,67.88,78.13,120.68,163.64,143.55,246.45a432.3,432.3,0,0,0,46.1-104.44"/><path class="cls-2" d="M663.88,139.46c12.85,4.83,19.4,12.3,24.08,23,24,10,37.28,30.41,44.29,53.49C790.43,238,851.35,273.1,896.34,329a431.07,431.07,0,0,0-214.29-220.4l0,.53c-1.2,0-91.93-2.13-204.26,52.34-2,1.15-3.93,2.39-5.83,3.69,35.19,10.31,64.25,12.39,85.11,13.84,4.93.32,9.31.64,13.09,1l3.12.28c10.23.87,23.61,2.33,39.12,4.7,14.28-26,37.36-42.37,51.5-45.53"/><path class="cls-2" d="M373.52,384.27c-18.45-35.61-41.66-64.06-71.29-79a155.28,155.28,0,0,0-17.51,14.54c-47.45,66.75-81.93,152.81-88.57,255,75.93-69.3,139.09-152.09,177.37-190.5"/><path class="cls-3" d="M415.88,176.25,386,219.57s22.55,15.67,41.11,36.88C394.68,249.81,359,243.81,359,243.81l-56.52,30.74,26.49-44a402.23,402.23,0,0,0-38.37-28.48c22.53.64,65.38,4.2,65.38,4.2Z"/><path class="cls-3" d="M471.71,367.79s-6.32,17.5-7.15,33.73c0,0-39.63,5.85-58.7,18.83,0,0,39.55-39.45,65.85-52.56"/><path class="cls-4" d="M738.67,366A33.06,33.06,0,0,1,748.81,365a27.27,27.27,0,0,0-4.56-8,40.48,40.48,0,0,0-8.59-7.43c3.29,5.08,3.38,12.05,3,16.53"/><path class="cls-4" d="M702.92,384.07q7.67-5.28,14-8.82a78.32,78.32,0,0,0-3.76-7.68c-3.41-6.07-12.27-11.38-12.27-11.38,3.67,10.84,2.88,21.8,2,27.88"/><path class="cls-1" d="M277.86,651.53c-33.69,13.77-113.4-5-113.4-5,80.52-4.62,159.29-62.33,159.29-62.33s-.13.3-.17.41c-23.62,36.21-56.16,57.16-56.16,57.16a43.21,43.21,0,0,0,10.44,9.77"/><path class="cls-3" d="M679.41,171s-19.81-15.51-42.27,8.56c24.08-43.88,38-18.71,42.27-8.56"/><path class="cls-1" d="M757.6,383.83s-2.07-1.41-2.52-1.66C742.51,375.5,720,395,705.31,403.09s-36.11,25.35-46.57,1.58,13.6-60.89,21.91-84.25c18.38-51.68,19.05-82.1,15.18-98.56,17,19.17,22.32,55.94,22.32,55.94s6.31-69.05-27.46-87.22c.79,2.43-.09,11-.79,17.84a.88.88,0,0,1-.09-.16c-15.72,2.86-50.41-1.07-61.68-6.95C585.51,247,539,310.66,504,369.1c-15.18,30.9-30,67.15-33.74,96.62a123.14,123.14,0,0,1-6-31.09c-19.36,7.49-85.17,39.8-99.24,139,0,0,41.81-43.15,88.07-60,0,0-29.29,76.7,26.61,212.64,0,0,22.61-83.37,70-104.39C578.35,764.22,662.37,766.56,686.86,863.4c0,0,25.67-50.18-5.23-135.44a44.31,44.31,0,0,1,19.69,13.62s-1.39-24.94-24.71-78.76c-15.18-28.79-19.94-67.67-19.94-67.67-13.66,12.37-17.14,54.13-17.14,54.13C597.81,536.13,716.2,424,737.81,407.45c10.55-8.1,17-8.24,21-6.3,4.08-8.42,3.71-13.8-1.18-17.32"/></g></g></svg>